<?xml version="1.0" encoding="UTF-8"?>
<svg id="_Слой_1" xmlns="http://www.w3.org/2000/svg" version="1.1" viewBox="0 0 32 32">
  <!-- Generator: Adobe Illustrator 29.6.1, SVG Export Plug-In . SVG Version: 2.1.1 Build 9)  -->
  <defs>
    <style>
      .st0 {
        fill: #2c3e50;
      }

      .st1 {
        fill: #fff;
      }

      .st2 {
        fill: #e74c3c;
      }
    </style>
  </defs>
  <rect class="st1" width="32" height="32" rx="4.79" ry="4.79"/>
  <path class="st2" d="M8.3,8.24c-.04-1.7,0-3.52,0-5.24,1.59.06,2.75-.21,4.24.66,2.57,1.51,3.24,4.93,1.81,7.45-.13.21-.34.49-.49.7.02-1.07-.53-2.08-1.32-2.78-1.2-1.07-2.74-.9-4.23-.79Z"/>
  <path class="st2" d="M18.15,11.8c-.73-.96-1.05-1.72-1.18-2.94-.29-2.91,1.56-5.6,4.63-5.84.16-.02.55-.01.73-.01h1.4c-.02,1.72.02,3.47-.01,5.17-1.14.02-2.42-.15-3.44.36-1.01.51-1.6,1.31-1.97,2.35-.11.34-.14.57-.14.92Z"/>
  <path class="st0" d="M14.19,17.02c-.84.03-1.69-.03-2.55,0-3.05.08-5.79-2.23-6.13-5.27-.08-.66-.03-1.51-.03-2.2v-3.1c.08.05.62.63.73.74l2.09,2.1,3.94,3.97c.94.94,1.93,1.91,2.85,2.87l-.43.44-.48.44h0Z"/>
  <path class="st0" d="M13.55,19.43c.34-.34.68-.7,1.03-1.05,1.06-1.05,2.12-2.09,3.17-3.15l4.21-4.18c1.2-1.23,2.42-2.46,3.65-3.67.31-.31.62-.64.94-.94.01.07,0,.35,0,.43v3.98c-.01,1.72-.53,3.16-1.77,4.39-2.07,2.06-4.15,1.77-6.77,1.77-.3.3-.66.66-.98.94l.82.82c.19.19.44.44.61.65-.57.53-1.08,1.12-1.66,1.64-.27.25-.54.53-.8.79-.16-.12-.38-.36-.52-.5l-1.95-1.94h.02Z"/>
  <path class="st0" d="M10.62,28.98c-2.76.1-5.09-2.07-5.2-4.83s2.05-5.1,4.81-5.22c2.78-.12,5.13,2.05,5.24,4.83.11,2.79-2.07,5.12-4.85,5.22ZM11.97,20.74c-1.54.14-2.8.82-3.78,2.01-1.01,1.22-1.29,2.57-.98,4.1.64.24,1.07.3,1.75.3,1.29-.02,2.5-.55,3.39-1.48.96-.99,1.53-2.25,1.5-3.64,0-.21-.03-.86-.2-.98-.36-.27-1.25-.36-1.68-.31h0Z"/>
  <path class="st0" d="M22.07,28.97c-2.78.29-5.26-1.72-5.54-4.5-.29-2.78,1.74-5.26,4.52-5.54,2.77-.28,5.24,1.74,5.52,4.5.29,2.76-1.72,5.24-4.5,5.53h0ZM19.36,20.74c-.38.04-.77.1-1.09.32-.12.28-.13.6-.14.9-.09,1.98,1.31,4.04,3.11,4.82.77.34,1.62.46,2.44.36.26-.04.93-.16,1.07-.41.18-.31.18-.96.15-1.31-.23-2.68-2.84-4.96-5.55-4.68h0Z"/>
</svg>