<?xml version="1.0" encoding="UTF-8"?>
<svg xmlns="http://www.w3.org/2000/svg" version="1.1" viewBox="0 0 1024 1024">
  <!-- Generator: Adobe Illustrator 28.6.0, SVG Export Plug-In . SVG Version: 1.2.0 Build 709)  -->
  <g>
    <g id="_Слой_1" data-name="Слой_1">
      <path d="M487.7,0h56.7c15.9,2.5,32.9,3.1,50.1,5.9,62.5,10.1,122.6,31.4,177.5,62.8,9.4,5.5,18.7,11.2,27.9,17.1,3.9,2.5,10.7,6.7,14,9.6-7.3,5.8-12.7,11.7-19.4,18-17.2-11.2-34.7-22.5-52.9-32-101.2-53-217.5-69.4-329.4-46.4-126.8,26.5-237.9,102-309.4,210C32.1,356.3,8.3,491.1,36.8,619.9c27.2,124.2,102.5,232.6,209.4,301.5,45.2,29.5,95.1,51.1,147.5,64,8.6,2.1,16.2,4.2,24.9,5.7,31.1,5.3,62.6,7.8,94.1,7.4,36.3,0,69.3-2.9,105-10.6,106.6-22.4,202.2-80.7,271-165.1,17.4-21.2,32.9-46.3,48.6-68.9,10.4-15,17.4-34.8,24.4-51.6,32-80.4,45.9-168.5,34.9-254.7-.4-2.8,4.1-19.9,5-24.4,3.5-19.6,4.2-36.5,4-56.3,6.9,25.6,13.5,61.1,15.8,87.3.8,8.6,1.3,17.3,1.6,26,.1,3.3.4,13.1,1,16v42.6c-1.3,9-1.3,19.4-2.5,28.6-2.6,19.6-5.8,41.6-10,60.9-20.2,89.3-64,171.6-126.6,238.5-28.5,29.9-59.7,55.7-94.3,78.2-55.7,35.7-117.9,60-183.1,71.3-12.4,2.3-24.9,4.1-37.5,5.5-4.1.4-19,1.5-22.1,2.2h-70.2c-4.7-1-16.7-1.5-22.4-2.1-12.3-1.1-24.6-2.8-36.8-5.1-79.8-14.1-155-47.4-219.2-96.9-94.4-72.7-160.3-176.2-186.4-292.4-4.7-22.1-8.3-44.4-10.6-66.8-.9-9.4-1-21.2-2.1-29.8v-.5c0,0,0-39.3,0-39.3.7-2.7,1.8-22.5,2.2-27.3,1.2-15.6,3.2-31.1,5.8-46.5,12-70.7,39.5-137.9,80.6-196.7,5.6-8.1,12.5-16.9,18.5-24.7C181.2,101.1,286.4,35.5,404.1,10.7c18.1-3.8,36.3-6.6,54.7-8.4,8.8-.8,20-1.1,28.4-2.2h.5Z"/>
      <path d="M124.4,269.1c5.9-6.7,11.1-15.6,16.7-22.7,11.1-14.3,22.7-29.6,35-42.9C260.5,113.9,376.5,60.7,499.5,55.2c20.4-1,44.5.8,64.7,3.6,74.3,9.9,145.1,37.2,206.9,79.7-14.1,15.2-26.9,31.7-40.1,47.6-16.9-.4-33.8.4-50.6,2.6-8.4,1-16.7,2.5-25.2,3.4,7.8-55.5-29.8-99.9-80.1-116.4-35.9-11.8-92.9-8.8-129.3-.6-14.1,3-27.7,7.7-40.7,13.9-26.2,12.7-43.2,26.2-52.8,54.3-9.8,31.6-1.1,70.7,5.6,102-5.1,2.9-12.3,6.2-17.6,8.9-31.7-42.6-129-43.3-171.7-18.1-5.3,3.1-10.1,6.9-14.3,11.2-2.2,2.2-6.7,7.4-8.9,9-6.8,4.9-14,7.7-21,12.8Z"/>
      <path d="M344.2,286.3c14.1,4.5,31.5,8.4,44.5,13l.2.2-.2-.2c-3-6-7.8-11.4-10.8-18.6-14.7-34.2-25.3-75.2-24.3-112.5.6-19.5,9.1-42,24.2-54.8,41-34.7,102.2-41.8,154.1-39.4,10.2.5,24.9,2.2,34.3,4.9,21.6,6.2,46.4,20.6,61.1,37.4,13.5,15.4,22.7,37.8,22.7,58.3,0,8-1.2,16.2-1.7,24.3,7.9-.6,23.2-3.1,31.7-4.1,19.7-2.4,33.9-3,53.5-2.8,7.9-7.7,16.3-19.4,23.4-28.3,19.5-24.5,41.4-46.8,64.6-67.8,2-1.9,5.4-2.6,7.4-.2,2.7,18-24,79.4-31.5,97.7,31.8,5.1,68.2,14.5,97.8,26.7,33.2,13.6,80.9,54.9,93.7,88.9,15.7,41.8,15.7,104.1-1.9,145.5-20.2,49.5-63.8,85.1-111.3,107.5-9.8,4.8-19.6,9.8-29.9,13.8,18.5,2.2,34.8,8.2,52.1,14.1,23.9,8.1,43.3,23.9,53.9,47.2,10.7,23.7,9,56-.5,80.2-16.1,41.2-40.9,69.6-81.6,87.5-34.3,14.3-75.8,19.3-110.9,5.9-41.6-15.9-62.9-53.1-84.9-89.2l-33.9-56.1-16.4-27.1c-13.8-22.7-15.1-25-4.7-50.6,21.4-52.7,70-85.9,119.2-110.1,17.8-8.7,37.7-16.1,56.3-23.6-10.7,2.3-21.7,5.7-32.4,7.7-27.1,5.1-45,4.2-70.2-8.5-10.4-5.3-15.9-8-26-14.9l-56.3,88.5c-9.2,14.5-18.9,29.1-27.2,44-10.4,18.7-12.4,34.6-16.8,54.9-7.4,34.1-28.8,63-53.6,87.1,14.8,1.2,35.6,9.7,47.2,19,18.8,15,29.7,35,32.6,58.8,3.4,20.1-2.1,51.3-10,70.4-17,41.1-47.3,79.7-84.9,103.7-29,18.5-68.2,26.8-100.7,13.5-18-7.4-32.3-21-39.7-39.1-7.6-18.5-6.1-41.8-3-61.3,3.1-18.1,9-33.7,16.1-50.4,27.4-64.1,80.8-102.8,124.8-154.2,12.1-14.1,28.5-35.3,36.2-52.3,7.2-15.9-2.4-40.9-9-56.3-25.1,7.3-38.7,16.2-57.6,34.1-25.1,23.4-46,51-61.8,81.5-11.5,22.3-18.5,43.6-33.3,64-8.8,12.8-18.7,22.6-29.6,33.8-39.7,40.8-108,91.5-164.9,52.5-19.1-14-32.6-37.9-35.6-61.2-4.2-32.9,5.9-67.7,21.6-96.5,7.6-13.9,14.3-26.8,23.8-39.6-10.6-5.2-23.3-12.7-29.5-23.3-2.8-4.8-2.8-10.3-2.9-15.7-7.4-3.5-20.8-14.3-27-19.8,4.5,24.7,20.6,62.4,37.8,80.6-3.1,7.5-9.4,18.2-13.1,26.2-12.3,26.2-18.4,54.9-17.8,83.8-1.6-2.3-3.2-4.7-4.8-7-48.6-74.8-73.4-162.6-71.2-251.8.5-23.1,2.1-43.9,6.7-66.5,8.2,59.2,36.8,114.3,88.3,147.1.1-2.2.1-4.6.1-6.9-73.3-51.7-102.2-150.3-76.2-235.7,10.1-33.1,43.1-68.2,74.2-83.1.9-1.4,1.9-2.7,2.9-4,30.7-41.1,132.8-41.5,171.8-12,13.5,10.2,18.5,25.2,20.6,41.2ZM414.7,105.4c-13.1,3.1-32.2,17.8-39.5,29.8-3.7,6.1-6.4,12.8-8.1,19.8,1.2,4.1,2.1,6,3.9,10l1.5,2.4h.5c-.6-16.2,3.2-30.1,14.7-42.4,5.2-5.5,11.1-10.2,17.6-14,1.9-1.1,8-4.5,9.4-5.7l.3-.3-.3.3ZM408.1,297l.5.3c3.7,2.4,8.3,4.8,12.3,6.7,61,28,130.2,26.1,195.6,19.5,8.2-.8,16.1-1.9,24.3-2.2,6.2-8.2,11.7-16.7,17.5-25.1,13.3-19.5,28.7-38.3,41.6-58-2-6.7-3.9-25.4-4.8-33.1-5.5.3-12.1,1.1-17.6,1.7.2,5.3,3.5,29.4.2,32.6l-1-.3c-1.7-2.1-5.1-27.2-5.7-31.5-5.2.9-12.1,1.5-17.5,2.1.2,8.2,2.4,21.2,1.2,29.6,0,.6-.6.7-1.2,1l-.8-.5c-2.6-4.2-4.8-23.3-5.7-29.2-6,.8-11.8,1.7-17.8,2.1.3,5.2,3.7,30.6,1.6,33h-1.2c-4-3.3-6.1-26.4-6.8-32.2l-16.1,2c0,5.7,2.3,27.2,0,30.4h-.9c-3.1-4.2-4.7-23.5-5.5-29.6-5.7.2-11.5.6-17.2,1.2.2,8.3,2.2,20.9.9,29.2-.1.6-.6.6-1.3.9-3.5-1.8-5.6-24.7-6.3-29.8-5.2.6-10.1,1.1-15.3,1.4.6,6.1,2.7,22.4,1.3,28.7,0,.4-.8.5-1.2.6l-1.1-.7c-2.8-6-4.3-21.3-5.2-28.2-4.7,0-12.3,1-17.1,1.4.5,4.8,3.9,23.5.9,26.2l-.9-.2c-3.1-3.7-5.6-20-6.3-25.4l-16.1.3c.5,5,3.1,24.2.3,27.3l-.8-.5c-3.1-5.6-4.8-20.2-5.7-26.9-5,0-10.5-.4-15.6-.6.2,4.9,2.4,23.9-.3,26.7-2.1-1.8-3.1-9.3-3.6-12.2-.8-4.8-1.4-9.9-2-14.8-5.6-.6-11.3-1.2-16.9-1.9.4,4.8,2.2,23.6,1.2,27.1h-.8c-3.4-3.7-6.1-22-6.9-28.1-5.5-1.1-11.1-2.2-16.6-3.2.8,5.9,2.9,18.5,1.5,23.7l-.6.2c-2.9-3.2-6.2-19.8-7.5-25.1-4.4-.8-9-2.1-13.4-3.2.5,4.9,2.9,24.8,1,27.8l-.7-.3c-3-5.2-5.6-22.7-6.7-29.2-2.7-.9-5.5-1.6-8.3-2.3,1,6.2,3.4,24.6,2.2,30.2l-.6.2c-1.9-2.7-7.2-27-9-33-2.7-1.4-5.1-2.2-7.9-3.3,1.7,29.5,7.1,59.6,13.3,88.5,1.9.6,4.1,1.6,6,2.4-1.4-6.3-5.4-43.7-4-47.7,2.1.1,3.1,2.7,3.2,4.4,1.4,15.1,3.9,30.3,6.2,45.3l5.8,2.6c-.7-14.5-3.4-31.3-3.2-45.6,4,0,5.9,0,9.7,1,1.3,7.3,2.7,45.7,5.6,48.8,2.1,2.4,7.3,3.3,10.3,4.2,26.7,7.8,56,11.3,83.7,12.3-.6-18.2-2.5-36.5-2.5-54.7h10.4c1.2,17.9,2.6,37,3.3,54.8,15.6.5,31.3,0,46.9-.5,1.3,0,2.6.2,3.7.8v.7c-2.4,1.3-8.6,1.1-11.5,1.3-51,2.9-102.7,1-151.9-14.1-7.7-2.4-15.8-5.2-23.7-7.3l-.5-.3ZM224.9,324c25,3,43.3,1.6,67.4-6.1,44-14.1,58.6-47.4,10.7-69.9-11.8-5.5-27.7-8.8-41-9.8-34.3-2.7-88.2.8-105.9,35.3-2.1,4.1-3,9.9-1,14.3,3,6.6,9.2,14.1,16.1,16.9l.4.4.4.3-.4-.3-.4-.4c-5.2-6.4-12.2-9.1-12.5-20-.2-6.2,2.3-11.8,6.5-16.2,18-19.1,46.9-24.2,72-25.2,25.2-1,60.7,3.3,79.9,20.6,4.4,3.9,10.1,11.7,9.6,17.8-1.3,18.3-27,29.2-41.5,33.3-18.1,5.2-35.3,6.8-53.9,6.9-8.2,0-15.9-.9-23.9-.8,5.1,1.3,12.2,2.4,17.4,3ZM497.2,354l-.4.6.4-.6c3.4-3.2,10.1-13.6,11.7-18-3.7,1.9-9.6,13.8-11.7,18ZM478.7,359.5l-.2.4.2-.4c2.3-2.2,16.1-22.5,17-25.1l-1.9.3c-3.4,2.8-13.4,20.4-15.1,24.8ZM461.4,362.8l-.3.2.3-.2c2.4-2,19-27,19.5-29.4-1.9-.4-2-.5-3.9-.5-2.6,3-13.4,25.3-15.6,29.9ZM263.2,368.5c-26.3,0-50.2-3.2-75-12-2.6-.9-7.3-3.6-9.5-3.7-.9,1.1-.5.8-.8,2.6,1,3,2.9,4.1,5.9,5.4,24.6,11,53.2,13.6,79.3,7.7l.3-.4-.3.4ZM966.9,367.6l.7.9.6.7.2.4c1.1,2.7,3.2,6.2,5.4,8.1l.3.4.6,1.1.3.2-.3-.2-.6-1.1-.3-.4c-.8-2.4-3.5-6.3-5.4-8.1l-.2-.4-.6-.7-.7-.9ZM437.4,379.7l-.3.3.3-.3c3.5-2.9,27.7-44.1,29.6-49.1-1.6-.4-2.3-.5-3.8-.7-.3.2-.6.3-1,.5-6.6,13.6-19.5,36.2-24.8,49.3ZM454.2,405.5c-7.6.7-15.5,2.3-23.5,3-21.7,2-43.2.8-64.7-2.6-9.9-1.5-19.8-3.4-29.6-5.7-3.7-.9-9.1-3.5-12.5-2.5-1,1.5-.7,1.6-.7,3.8,5.4,2.5,12.2,3.7,18,5.1,30.5,7.2,62.7,9.3,93.7,3.8,5-.9,15.2-2.6,19.4-4.9l.3-.3-.3.3ZM78,400.8c0,1.1.2,2.9.9,3.8,6.9,8.7,14.5,16.9,21.4,25.7,2.1,2.8,4.6,5.9,7.1,8.2l.7,1,.6.7.4.5.7,1.1.3.3.5.6.9,1.3.7.7.8,1.3.4.5-.4-.5c-.1-.3-.6-1-.8-1.3l-.7-.7c-.3-.5-.5-.8-.9-1.3l-.5-.6-.3-.3-.7-1.1-.4-.5-.6-.7-.7-1c-3-6.9-23.7-31.3-29.3-37.7ZM79.4,384.8c-.3,6.3,34,45.5,38.6,53.1.7,1.1,3.5,3.9,4.6,4.8l.2.2-.2-.2c-.9-1.9-7.6-11-9.2-13.1-6.8-9.4-13.8-18.6-20.9-27.7-4.1-5.4-8.9-12-13.2-17ZM976.1,446.3c-3.4,5.7-6.1,12-9.7,17.4-24.1,36.7-61.8,61.5-100.2,81.2-11.8,6.1-23.4,12.6-35.4,18.2-16.3,7.9-33.8,14.4-49.8,22.9-37.4,19.8-71.6,47.4-89.6,86.6-6.1,13.2-14.3,37.7-3.8,51l.3.3-.3-.3c-.8-22.4,1.8-34.2,12.2-54.6,15.1-29.6,41.3-50.7,68.8-68.3,10.9-7,23.9-11.9,35.4-17.9,23-10.1,45.9-22.5,68.3-33.6,40.7-20.3,77.6-47.3,98.4-89,1.8-3.7,5.1-9.8,5.6-14l.3-.3-.3.3ZM106.7,498.3c-6.4-4.1-10.9-9.3-16.4-14.5,4.7,12.8,13.6,19.4,22.4,29.4,2.1,2.4,5.5,5.6,6.9,8.3-10-8.5-14.8-11.9-22.3-22.4,9.3,24.4,33.9,52.6,54.7,68,4.5-3.8,6.9-5.6,11.9-8.6v-43.3c-12.3-7.6-25.5-15.7-36.5-25.4-16.5-14.8-34.5-31.9-47.7-49.9.1,1.4.6,6.4,1.2,7.5,7.1,14.8,24,30.6,36.1,41.6,7.1,6.5,15.8,12.4,22,18.7-19.7-9.7-40.7-32.1-55.6-47.9,3.4,17.7,13.4,24.4,23.2,38.5ZM494.2,544.6c3.1-14.6,7.1-23.2,15.9-35,.6,8.1,4.8,16.5,7.9,23.9,7.5,18.1,23.8,53.1,23.8,72.1,0,54-89.2,123.7-122.3,163.2-20.5,24.4-38,52.5-48.4,82.7-9.3,26.9-15.4,58.3-2.3,85,7.1,14.3,19.5,25.2,34.6,30.4,27.4,9.3,56.5,1,81.5-11.3,6.5-3.4,14.4-7.7,20.1-12.1,22.8-17.3,43.9-43.3,57.7-68.2,15.2-28.1,25.3-62.4,16.5-94-7.9-28.5-27.6-46.8-55.7-54.4-19.9-5.5-31.2-3.6-50.7,2,6.9-6.1,19.6-9.4,27.9-14.3-7.1-.1-15,2.5-21.7,4.7,3.2-3.2,6.4-6.5,9.5-9.8,20.2-21.3,46.6-53.1,56.1-81.1,11.2-33-10.8-74.1-25.4-103-1.7-3.4-6.5-13.4-9-15.7,14.6-22.9,31.2-45.7,46-68.5,5.8-8.9,12.9-18.5,18.2-27.5-10.1-2.7-19.2-4.3-29.7-3.9-49.1,1.5-89.7,47.3-119.9,81.4-13.2,14.9-26.6,30.3-40.2,44.8-14.3,14.2-28.1,22.6-46.2,30.9,1.4,9.5,1.8,13.5,0,22.8,21.7,18.2,31,33.9,41.6,59.4,7-7.8,12.9-16.7,19.7-24.7,11.8-13.8,71.3-79.2,82.1-84.2,5.3.9,7.6,2.1,12.5,4.4ZM582.9,545.7l-.3.3.3-.3c2.7-3.4,10.5-16.2,13.3-20.7l23.3-36.6c20-31.6,39.8-62,58.9-94.3,36.2-61.5,69.5-124.7,99.7-189.4,8.4-17.9,16.5-35.3,23.7-53.7,3.8-9.7,8.9-21.7,11.2-31.8-2.3,3-6.8,11.7-8.8,15.3l-16.3,29.8c-22.9,42.5-44.3,85.8-67.1,128.1-22.1,40.2-44.7,80.1-67.9,119.7-5.5,9.6-11.7,18.8-17.2,28.5-5,8.9-3.5,16.2-8.3,24.9-1.9,3.5-5.6,6.3-7.5,9.6-9.1,15.8-18.3,31.8-26.7,48.1-3.1,6.1-8.8,16.3-10.4,22.5ZM850.5,591.6c1.9,1.1,17.4,5.3,20.5,6.2,13.4,3.9,27.4,8.7,40.9,11.8l.6.3-.6-.3c-12.5-8.2-46.1-16.3-61.4-18.1ZM845.3,600.6c4.3,4.2,44.2,12.4,52.3,14.8,3.9,1.1,17,4.9,20.8,5.8l.6.2-.6-.2c-6.9-5-62.9-19.2-73.1-20.6ZM749.3,624.6l-.3.3.3-.3c7.3-3,14.5-6.3,22.1-8.1,2-.5,11.7-1,12.5-2.1l-1.5-.5-11.2-3.2c-5.3,2.1-17.6,9.8-21.9,13.9ZM858.8,624.5c0,1.1.2,3.8.7,3.9,8.8,2.8,68.4,17.4,72.7,17.6l.3.3-.3-.3c-8.8-3.8-17.1-5.9-26.1-8.7-15.7-4.9-31.3-8.8-47.3-12.8ZM826,683.5l-.7,1.3-.2.2.2-.2.7-1.3,1.2-.5c1.2,1,12.3,32.4,13,35.6-.8,1.6-.2.9-2.1,1.9l-.9-.2c-2.7-6.5-13-29.2-12.3-34.6-3.1,1.1-8.5,22.3-8,25.9,1.2,8.6,4.6,21.1,16.1,16.1,10.2-4.4,28.8-25.3,28-36.6l.3-.9-.3.9c-4.4-1.5-12.3-25-13.4-30.2-.3-1.2,1.1-2.2,1.9-2.9l1,.2c2.7,3.1,10.1,26.5,11.2,31.8.2-1,.4-2,.6-3.1,1.8-11.8-2.7-22.2-9.5-31.6-9.6,5.1-22.1,18.6-26.6,28.3ZM166.8,688.2l-.2.3.2-.3c0-.1.2-.2.3-.3,25.6-40.6,56.3-87.6,108.1-95,20.3-2.9,41.5,2.1,57.6,14.9,15.6,12.5,26.7,32,29.2,51.9,3.5,34.7-17.4,77.4-38.9,103.7-22,27-54,58.3-90.1,61.7-19.2,1.8-40.1-2-55.1-14.6-1.2-1-3-2.6-4.2-3.4l-.3-.3-.4-.4.4.4.3.3c4.8,8,19,16.3,27.9,19.1,20.2,6.4,42.9,1.6,61.5-8.1,44.7-23.4,84.2-66.8,100.3-115,8.4-26.3,7.9-49.3-5.1-73.7-24.1-45.2-73.7-57-117.7-32.8-28.7,15.8-51.1,41.9-64.5,71.7-2.8,6.2-7.3,13.1-9.3,19.7ZM506.8,701.2l-.2.2.2-.2c4-2,14.1-12.1,17-15.3,22.9-24.7,39.2-56,37.5-90.5-1.1,6.1-1.8,11.6-3.4,17.8-6.4,25.1-19.4,46.9-34.4,67.7-4.7,6.6-12.8,13.8-16.8,20.3ZM706.6,726.1l.2.3c5.5,10,37.1,20.1,47.9,22.7,7,1.7,18.5,2.5,24.9,4.8l.5.8c-1.3,2-11,1.9-13.4,1.8-22.1-.5-41.5-8.7-59.8-20.6l-1-.7-.2-.2-.3-.7-.7-.2.7.2.3.7.2.2c15.7,19.5,52.4,28.2,76.5,30.5,2.4.2,9.3.4,11.1,1.5l.4,1c-1.1,1.5-2.3,1.9-4.3,2.2-17.4,2.2-37.1-2.2-53.6-7.9-5.5-1.9-10.9-4.9-15.9-6.7l-.3-.3-.7-.7-.8-.2.8.2.7.7.3.3c26,21.5,81,22.7,85,25.9l-.2.8c-5.9,3.5-25.3,1.4-32.1.4-14.4-2.1-28.2-6.5-41.3-12.7l-.8-.4-.3-.3.3.3.8.4c6.8,6.1,20.2,10.6,28.8,13.6,56.4,19.6,121.9,4.3,156.2-46.7,7.8-11.5,11.8-22.2,16-35.4-11-4.3-23.2-7.3-34.3-11.2-5.4-1.9-13.6-2.8-17.5-7.2l.5-.4c4.1.5,7.9,2.3,11.8,3.1,13.1,2.7,27.1,9.5,39.7,12.3l.8.2c1-4.1,1.9-8.5,2.9-12.6-9.8-2.7-19.5-5.6-29.2-8.6-10-3-23.6-6.2-31.2-13.4,21,4.9,41.2,10.9,61.8,16-.1-2.9-.1-5.7,0-8.6-22.2-7.5-46.7-12.8-68.5-21.8-1.2-.5-1.2-1.8-1.3-2.8.8-1.6,2.4-.7,4-.3,20.4,5.9,41.4,9.4,61.7,15.5,1.2.4,2.5.5,3.6,0,.2-1.9.4-2-.2-3.8-3-1.8-7.9-2.4-11.1-3.7-14-5.2-28.9-8.6-43.2-12.8-6.3-1.8-17.3-4.2-23.1-6.3l-1-.4c-12.6-19.1-17.5-36.7-41.6-46.9-5.3,1.9-10.2,4.5-15.2,7,4.5,0,16,.4,19.9,2.6v.5c-4.1,1.8-19.6,0-24.4-1-4.6,1.9-13.7,6.9-18.7,9.4,8.1,1.6,14.4,3.9,22.1,5.8,23.5,6,42.9,13,59.5,31.9,9.2,10.5,14.4,26.4,13.5,40.3-1,15.8-9.8,31.9-21.9,41.9-6.7,5.6-17.8,12.8-27,11.9-5-.5-8-4.8-11.1-8.5-2.8,1.1-5.6,2.2-8.5,3.2-8.8,3.2-17.9,5.4-27.1,6.9-3.2.5-9.2,2.8-10.8,2.9-22.8,1.2-41.1-7.7-60.4-16.7l-.2-.3ZM360.7,732.4l-.2.5.2-.5c1.6-1.5,4.1-5.2,5.5-7.1,11.5-15.5,18.5-33.5,27.4-50.5,12.1-23.1,25.4-44.2,43-63.5,10.9-11.9,21.9-24.2,32.7-36.3,4.7-5.3,18.2-18.6,19.9-24.2-3.2.9-6.9,4.5-9.2,6.9-29.4,31.4-61,62.1-83.3,99.1-11,18.3-20.2,38.7-28,58.5-2.3,5.8-5.6,11.2-7.9,17ZM744.5,788.6l.7.2,1.1,1,.4.2c.3.3.7.6,1.1.8,59,32.2,141.5,7,178.3-47.6,13.3-19.7,23.5-56,18.6-79-.2-2.1-.8-4.8-1.1-6.9,1.4,52.7-28.5,102.4-75.3,126.4-40.9,20.9-79.1,19.9-121.6,6.3l-.4-.2-1.1-1-.7-.2ZM505.4,88.7c-2.8.2-5.5.4-8.3.6-48.8,4-116.6,27.6-117.2,86.2,1.6,2.1,2.8,3.6,4.7,5.6-.3-12.7.3-22.5,6.9-33.8,22.2-38.1,78.8-54.4,120.6-55.3,8.5-.2,17.1.2,25.6,1.2,19.6,2.9,42.1,9.9,58.4,21.4,30.7,21.7,40.7,53.5,23.1,87l.2.4,4.3-.6c9.3-18.4,13.5-34.8,7.4-55.7-5-17.3-24.7-35.6-40.5-43.1-22.8-10.8-59.8-16-85.1-13.8ZM516.4,103.7c-25.3,1.3-43.8,4.3-66.8,15.8-26.7,13.3-51.2,44.9-35,75,3.7,1.3,6.9,2.4,10.7,3.5-5-5.9-8.4-10.2-10.1-18-4.3-19.4,7.5-35.5,21.6-47.6,12.7-10.9,28.9-16.8,45-21,36.4-7.6,80.1-6.2,112.1,14.4,18.9,12.1,26.1,26.3,25.2,48.3,2.2-11.3,1.8-21.4-4.8-31.3-12.7-19-42.9-32.4-64.4-36.6-11-2.1-22.3-2.9-33.5-2.4ZM520.9,120.7c-19.6,1.1-34.5,4.3-51.5,14.5-21.4,12.8-42.8,41.7-28.8,66.9,3.9.9,7.9,1.7,11.9,2.5-5.6-7.6-10.5-16.9-8.8-26.6,2.5-14.4,15.3-28.3,26.8-36.4,16.2-11.3,29.8-14.2,49-15.5,20.9-.4,38.7,3.6,54.8,18.3,15.5,14.1,19.2,39.1,4.1,55-2.6,2.7-6.4,5.1-9.6,7.2,4.3-.2,8.7-.4,13-.6,8.2-9.3,12.3-21.5,11.5-33.8-.9-13.7-7.4-26.5-17.9-35.5-15-12.7-35.5-16.5-54.6-16ZM516.3,137.7c-24,2.8-59.1,18.8-59.6,49.4-.2,8.6,11.7,19.5,19.7,20.5,13.5,2.5,27.7,3,41.4,2.9,6.6-.1,22.4-.3,28.2-2.4,13.2-4.9,31.1-17.2,30.7-33.1-.8-27.6-37.3-40.8-60.3-37.3ZM367.7,175.9c2.4,25.5,5.2,46.3,13.1,70.9,1.1,3.3,3.7,12.2,5.2,14.8-1.5-10.7-3.5-20.7-4.5-31.6-1.3-14.8-1.9-44.1-13.8-54.2ZM383.2,191.3c1,28,6,50.8,13.9,77.7,1.2,4.1,3.5,13.8,5.8,17-.3-4.7-1.2-10.4-2-15.1-4.2-23.8-4.8-48.1-10.4-71.6-.8-3.2-4.6-6.1-7.3-7.9ZM711.4,203.7c-2.9.2-6.9.3-9.7.7.5,8.2,1,19.4,3.3,27.2,1.2-1.5,2.8-3.5,3.8-5,4.8-7.6,9.5-15.2,14.1-22.9-3.5,0-8-.1-11.5,0ZM799.2,206.5c-.6,6.5-.6,21-3.9,25.5h-.8c-3.2-5.2-2.3-20-2.7-26.8-16.1,33.8-32.2,67.7-50.4,100.5-1.4,2.6-3,5.2-4.2,7.8,51.2-.2,153.5,11.5,165.3,73.6,1.1-2.3,2.7-5.2,2.6-7.8-.3-16.1-14.5-29.9-26.4-38.9-3.4-2.6-13.6-8-15.1-11.1l.4-.8c4.7-.3,32,21.8,37.2,26.3,13.8-16,28-30.4,42.5-45.6,4.9-5.2,14.3-14.6,18.4-19.9l-2.2-3c-2-2.4-3.7-4.8-6-7-5.9,6.2-10,11.9-15.1,18.8-1.7-1.4-3-2.1-3.7-4.1,0-.6,0-1.1,0-1.7,4.2-6,10.2-10.7,14.4-16.7-2.8-3-5.7-6.2-8.7-9-3.2,4.8-6.5,9.8-10.1,14.3-1.8,2.3-4.3,5.6-7.3,4-.5-.9-1-1.5-.4-2.6,3.3-6.6,8.7-13.7,12.6-20.1-3.6-2.9-7.1-6-10.6-9.1l-.5.6c-4,5.3-11.2,20.7-17.6,20.3-1.3-2.8,10.9-19.6,13.1-23.8-3.7-3.1-7-5-11.3-7.2-3.5,5.7-11,19.3-15.8,22.5h-1.2c-3.3-4.1,8.7-20.3,11.2-25.6-4.4-2.4-8.7-4.9-13.3-7.1-2.6,5.6-9.1,21.8-14.2,24l-1-.2c-2.8-4.8,7.1-21.3,9.9-25.5-5.7-2.5-10.5-4.5-16.4-6.6-2.6,6.9-6.6,18.6-9.8,24.8-2.1-.6-3.5-.8-5.2-2.3-.5-2.6,7.6-19.8,9.1-24-4.9-2.1-10-3.9-15.2-5.2-.8,4-5.2,21.7-7.4,24.2-2,0-1.1.3-2.8-.7-3.3-4.9,1.9-19.4,3.4-25.1-5.6-1.6-11.2-3.2-16.9-4.5-1.4,5.9-4.5,22.9-8.2,26.6h-.6c-2.6-5.7,1.7-20.9,2.3-28.1-6.1-2.2-11.1-2.9-17.6-3.4ZM242,246.2c-24.9,1.1-53,5.6-71.4,24-9.1,9.1-8.6,20.8,1.7,28.8,19.9,15.5,47.5,16.8,71.7,16.5,23.3-.9,53.5-6.1,70.7-23.3,9.2-9.1,5.7-20.8-3.7-27.9-17.8-13.6-47.1-18.8-69.1-18.1ZM146,274.9c-2.3,1.6-4.7,3.2-6.8,5,1.2,1.8,2.4,3.6,3.8,5.2l1.5,1.1.9-.2c1.5-3.2,1.1-6.9,1.1-10.5l-.5-.6ZM136.6,282c-4,3.1-6.4,5.4-10,8.9,2.7,3.8,13.3,17.5,12.5,21.2-3.3-.3-14-14.5-17.2-17.7-3.4,3.2-5.6,5.7-8.6,9.2l.4.6c3,4.6,11.8,13.7,12.4,17.6-.8,1.3-.2.8-1.9,1.3-.5-.2-13.1-13.7-14.5-15.2-3.3,3.5-5.2,5.9-8.1,9.7,3.9,2.6,14.1,14.2,15.4,18.9-.3,1.9-.7,2.1-2.8,2.3-4.5-3.4-11.1-12.6-15.4-17.3-1.6,2.7-3.4,5.8-4.7,8.6,4.3,6.3,15.8,18.4,21.3,24.6l35.9,40.7c-1.9,2.7-4,5.4-5.6,8.2-9.2-11.9-18.4-23.9-27.8-35.7-8.6-10.7-17.9-21.2-26.4-31.9-1.8,3.5-2.6,5.7-3.9,9.4,9.2,13.2,21.8,25.2,32,37.8,7.2,8.9,15.4,17.2,22.6,26.2-1.6,3.1-3,5.8-4.9,8.8-4.6-6.7-9.4-13.2-14.5-19.6-13-16.2-24.4-30.3-38.1-46l-.4,6.3c16.3,21.1,33.9,44.4,51,64.5-3.9,9.5-7.4,18.7-10.5,28.5-1.7,5.5-3,11.9-4.8,17.2-5.1-5-10.7-11.7-15.6-17.2-8.3-9.2-18.3-19.5-26-29.1.3,1.4.9,5.4,1.7,6.4,7,8.5,15.5,16.6,23.3,24.4,6.6,6.6,13.6,15,20.8,20.6,2.1-9.3,5-21.1,8.4-29.9,6.2-16,19.9-39.8,32.5-51,.7-23.5-.9-48.3.4-71.6-2-2.6-4.1-5-6.3-7.5-8.8-10.2-12.8-22.4-22.4-32.3ZM965.4,293.3c-10.8,10.7-22.2,23.4-32.6,34.8-8.5,9.3-20.7,22.3-28.1,32.1,1.3,1.7,1.4,2.5,3.1,2.9.9-.7,1.2-1,2-1.9,13.7-14.5,27.3-27.9,42-41.4,5.8-5.3,14.1-14.1,20.4-18.3-1.7-2.6-4.2-6.6-6.7-8.3ZM342.1,295.4c-4.9,8.9-9.9,15.4-17.5,22.2-.8,8.1-2.7,68.6-.8,73.1,1.6,1.2,1.7,1.2,3.4,1.9.4-6.1,7-31.9,9.9-35.9h1.1c.7,1,1.3,1.9.9,3.1-3.1,10.8-6.2,22.5-8.9,33.4,5.6,1.8,11.3,3.3,17,4.8,5.9-15.7,9.7-31.5,15.2-47.2.4-1,.8-1.3,1.6-1.9h.8c1.1,2.2,0,4.4-.6,6.7-2.2,9.9-3.7,20.1-6,30-.6,3.3-2.7,11.8-1.7,14.5,5.4-.5,29.1-82.3,32.4-92.2-4.3-1.2-9-2.7-13.3-3.8-1.1,5.2-5.8,24.2-8.7,27.6h-.8c-.9-2,5-24.7,5.9-28.4l-14.4-4.1c-3.5,11.3-7.3,23.8-11.4,34.9,0-9.7,3.6-26.5,6.2-36.1l-10.5-2.5ZM973.4,306.3c-7.7,6.1-17,17.3-24.2,24.7l-23.6,24.5c-2.4,2.4-14.2,13.5-14.5,15.7,1.5,0,.7,0,2.1-1l39.7-34.9c6-5.3,18.2-16.7,24.4-21.1-.6-2.3-1.5-6.9-4-7.8ZM393.7,308.9c-6.6,24.3-11.8,49.1-19.2,73.2-1.8,6-4.1,14-5.1,20.1,2.3-3.7,4-6.8,6-10.7,14.8-28.1,22.1-49.2,33.2-78.1-4.1-1.2-11.2-3.1-15-4.6ZM412.1,314.8c-6.2,21.7-13,43.1-20.6,64.3-2.4,6.8-5.4,13.7-7.7,20.4,2.2-3.2,4.3-6.5,6.4-9.8,9.6-15.8,18.7-34.5,26.5-51.2,2.5-5.4,6.4-13.7,8.3-19.2-4.4-1.6-8.5-3.1-12.9-4.5ZM429.4,320c-3.8,8.9-7.5,20.8-10.9,30.2-5.3,14.6-11.1,29.1-17.1,43.4,2.4-2.7,3.3-4.3,5.2-7.4,9.8-16.8,25.6-44.9,32.9-63-3.3-1.1-6.8-2.4-10.1-3.3ZM445.8,325c-4.9,10.8-9,22.2-13.8,32.9-3.5,7.8-7.4,14.5-10.6,22.6,1.7-2.2,2.7-3.5,4.2-5.9,8.8-13.1,21.6-33.3,29.5-47-3.5-1.2-5.7-1.9-9.3-2.7ZM731.4,325c-4.5,9.1-9.7,17.7-14.7,26.7-8.9,16.3-18,32.4-27.4,48.4-5.2,8.8-14.9,23.8-19.2,32.3,32.4,23.8,62.1,29.9,100.8,19.4,15-4.1,29.9-8.1,44.7-12.9,17.5-5.1,65.8-22.7,76.5-39.9,10.5-16.9-22.5-46.4-36.4-51.6-38.1-17.8-82.9-22.3-124.4-22.3ZM178.1,329.4c.3,2.6.2,3.8,2.6,5.4,19.3,12.7,50.5,14.1,71.9,11.5,3.6-.4,7.1-.9,10.7-1.4l2.9-.7c-4.3-.4-8.8,0-13.1-.2-24.7-.6-52.2-4.9-74.9-14.6ZM626.6,334.7c-16.5,1.2-33,2.6-49.5,3.3-2.6.1-5.1.3-7.7.6l-.6.4c-4.6,3.6-10.1,9.3-14.5,13.4-9.2,8.5-18.5,16.9-27.9,25.2-17.4,15.1-42.2,32.8-64.2,38.8-37.7,10.2-79.7,10.1-117.6,1.4-7.2-1.7-14.1-3.3-21.2-5.2.2,41.4-.7,83.9.1,125.1,3.1,3.2,5.1,5.4,7.8,9,2.1,3.7,3,5.7,4.5,9.6,35-14.2,51.8-37.1,76.2-64.3,44.1-49.1,93.6-108.6,167.7-85.2,14.2-19,28-38.3,41.3-58,1.6-2.3,9.2-12.9,9.7-14.2-1.9-.3-2.3-.2-4.1,0ZM178.4,340.4c0,1.8-.4,4.5,1.2,5.7,20.7,14.8,60,16.3,83.8,11.1l1.3-.6c-5.7-.5-13.3-.2-19.7-.6-23.1-1.6-45.5-6.1-66.6-15.6ZM178.2,363.9c0,1.3,0,4.7.8,5.5,5.7,5,13.6,6.6,20.7,8.9,21.3,6.9,39.7,6,61.5,3l2.1-.6c-.6-.6-6.4-.4-7.7-.5-23.9-.8-56.1-5.1-77.4-16.3ZM81.2,368.7c-.6,3.2-1.3,4.4.6,6.9,8.7,11.5,17.7,23,26.8,34.3,6.5,8,13.3,17.4,20.5,24.7-1.6-6-17.7-27.5-22.3-33.4-4.2-5.5-21.4-29.9-25.6-32.4ZM959.4,370.9c.9,3.1,16.5,29.6,18.7,30.8-2.2-5.6-14.4-28.1-18.7-30.8ZM177.8,374.9c.1,1.9.2,4.5.4,6.3,22.7,12.8,58.2,16.7,83.7,11.1l.9-.3c-5.6-.5-12.4,0-18.8-.5-20.9-1.7-47.6-7-66.2-16.7ZM952.2,376.7c-.3,1.4-.6,1.2.2,2.8,6.2,12.6,14.4,24.2,20.2,37.1.2.2.4.4.6.6l1.8-6.6c-7.3-10.9-13.8-22.3-21.2-33.1-.1-.2-1.3-.6-1.6-.7ZM944,384l-3.5,2.3c7.8,14.4,17.8,29.3,26.1,44l2.9-5.1c-4.2-7.7-20.4-35.9-25.6-41.2ZM178,387.2c0,1.7-.2,4.3.5,5.8,3.1,2.6,7.9,4,11.8,5.3,18.9,6.7,37,9.4,57,7.6,4.7-.4,9.4-1,14.1-1.8l.7-.4c-3.2-.3-6.3.1-9.4-.1-24.1-2-52.8-5.9-74.6-16.4ZM931.9,391.5c-3.2,3.3-5.2,4.9-8.9,7.8,4.2,6.3,26.6,38.8,25.5,43.9,0,.2-.1.4-.2.6l-.8.2c-5.8-4.5-5.6-18-13.2-16.9-4.2-3.8-13.1-18.5-17.2-24.2-4.2,2.4-8.9,5.3-12.8,8.2,2.6,3.7,15,19.9,14.7,23.1-1.3,1.5-2.7,1.9-4.5,2.7-4.2-6.1-11.5-18.2-15.9-23.1-4.3,2.8-8.6,5.5-13,8.1,4.5,6.7,9.3,14.2,14.1,20.6-1.9.7-3.8,1.5-5.7,2-4.3-6.2-9.2-13.8-13.9-19.5-5,2.8-10.1,5.4-15.2,8,4.1,6.4,8.5,13,12.4,19.4-1.6,1.4-3.1,2.7-4.7,3.9-4-6.1-9.2-14.7-13.5-20.3-4.2,1.7-10.9,4.3-14.7,6.6,2.1,4.7,10.3,16.1,10.7,19.9-1.3,1.5-.5,1-2.4,1.4-4.7-1.6-10.3-13.6-14.9-18.7-5.1,2.1-10.1,4.4-15.1,6.9,2.3,4.1,12.1,18,12.2,20.7-1.2,2-2.9,2.8-5,3.9-3.6-6.9-8.6-15.5-13.4-21.6-5.4,1.9-10.9,4.7-16,7.4,4.2,7.8,7.9,13.7,12.5,21.2-2.1.4-4.2,1-6.3,1.2-2.6-4.6-9.1-15-12.6-18.9-5.5,2-11.4,4.5-16.6,7.2,9.5,15.5,19.5,30.4,27.1,46.9,1.4,3.1,4.6,6.3,5.6,9.4-6.5-1.5-24.3-28.7-28.6-35.5-3.7-6-7.4-12-11-18-4.9,1.9-10,3.8-14.8,6,1.8,5.5,10.3,19.8,8.2,24.2-3.6-.6-11.3-17.3-13.7-21.3-5.2,2.2-10.3,4.6-15.4,7,2.4,5.4,11.3,19.3,9.9,23.2-3.9,1-13.5-17.2-15.2-20.5-5.7,2.5-9.5,4.4-14.6,7.9,2.8,6.6,10.6,16.8,11.1,21.6l-.5,1c-4.2.6-13.6-15.7-16-19.5-5.1,3.3-10,7-14.6,11.1,2.7,4.4,13.1,17.2,12.4,20.7-4,2.4-13.8-13.9-16.9-17.3-4.8,3.4-9.7,7.3-13.8,11.5,3,4.2,10.7,14.2,11.4,18.5l-.3,1c-.6.3-1.2.8-1.6.5-5.2-3.9-10.3-11.2-15.2-15.7-3.3,2.9-7.8,7.7-10.5,11.2,3.2,4.1,11.3,13.4,11.4,18.2l-.6.8c-4.3-.3-13.6-11.6-16.3-15.2-3.5,4.3-6.8,8.8-9.9,13.3,3.6,4.2,15.7,15.9,13,20.8-6.9-3.5-10.6-9.9-17.1-14.3-2.6,4.1-5,8.1-7.1,12.6,3.2,5.4,11.5,12.7,12.8,17.6l-.3.9c-4.2.8-11.9-8.6-14.9-11.5-1.8,3.8-4.6,9.4-5.6,13.4,2.4,2.8,9.8,11,10.4,14.2-.4,1.5,0,1-1.2,1.8-4.8-1.2-8.6-9.7-11.3-8.6-.9,3.5-.2,4.8,1.6,7.7,13.8,22.8,28.2,45.3,41.7,68.3,1.8,3,3.5,5.8,5.4,8.7,2-11.8.1-20.2,10.5-27.9-3.8,10.1-11.1,26.8-5.9,37.8.3.6.6,1.3.9,1.9,1-7.4,2.4-19.3,4.9-26,9.1-24.6,27.6-52.6,49-68,13.2-9.5,30.9-21.7,45.1-29.5,31.4-16.8,64.8-29.5,95.6-47.2,11.9-6.8,24.8-12.5,35.6-21,25.1-20,54.8-54.1,65.2-84.8-6.3,8.3-11.3,17.8-17.5,26.1-20.2,26.8-45.5,50.1-75.6,65.1-3.2,1.6-16,9.6-18.7,9.5v-.6c3.5-4.5,33.4-20.3,41.5-26.3-3.7-6.3-19.9-30.2-20.7-35,.9-1.6,2.4-2.1,4.2-2.6,1-.3,2.1-.6,3.1-.8,4.1,6.6,16.8,27.4,21.7,32.2,17-13.4,41.4-39.9,50.6-59.5-6.6-11.4-14-22.8-21.1-34-1.7-2.7-7.1-11.3-8.9-13.2ZM178.1,398.8l.2,6.2c20.5,12.3,57.9,15.3,81.1,10.4,1.3-.3,1.2,0,2.1-.7-6.2-.3-12.4-.1-18.7-.5-16.3-1-51.2-7.3-64.7-15.4ZM178.1,410.6c0,2.1-.4,4.2,1.3,5.5,12.9,10.1,40.9,13.6,56.2,13.4,7.8,0,15.6-.9,23.3-2.3l.9-.4c-3.8-.9-15-.7-19.8-1.2-20.8-2.1-42.9-5.7-61.9-14.9ZM164.1,411.3c-14.3,21.8-28.4,45.4-29.4,72.4,3.7,3.6,7.8,6.6,12,9.6,5.7,3.9,10.9,7.6,17.3,10.4,1.5-24.6-.5-50.6.4-75.4.1-3.1.3-14.8-.3-17ZM178.2,421.9l.2,5.3c21.1,14.2,55.5,15.8,80,11.5l1.4-.5c-6.9-.3-13.7-.3-20.6-.9-20.2-1.8-42.8-6.6-61-15.4ZM594.9,427.7c-8.5.9-15.5,4.1-21,10.8-3.2,4-5.5,8.8-5,14,.5,4.9,3.3,9.3,7.2,12.3,5.1,4,11.3,5.4,17.6,5.9,7.3,0,14-1.1,19.3-6.5,4.1-4.2,5.9-9.6,5.6-15.4-.3-5.8-2.5-11.5-6.9-15.3-4.6-4.1-10.8-5.7-16.9-5.8ZM177.8,432.4c-.1,2.6-.4,4.3,1.4,6.3,8.9,10.2,38.4,13.6,51.4,14.1,8.9.3,18.5-.1,27.2-2.1l.9-.5c-21.3-.4-64-5.1-80.9-17.8ZM177.8,445c0,2-.2,4,0,6,18,12.3,54.5,16.2,76,12,.8-.2,1.7-.3,2.5-.6l1.4-.4c-2-1-21.3-1.6-25.3-2-16.9-1.8-40-6.6-54.6-15.1ZM792.6,454.2h.6-.6ZM178,457.3c-.1,2.1-.5,3.9,1.1,5.6,8.7,9.4,39.7,13.2,52,13.4,8.3.2,16.5-.6,24.6-2.4l2.8-.7c-.3-.1-20.6-.9-23.4-1.1-18.8-1.8-40.2-6.2-57.1-14.8ZM178.3,469.3c0,1.9-.2,4,.7,5.7,3.1,2.6,7.2,3.9,11,5.2,17.3,6.3,35.7,8.7,54.1,7.1,5-.5,10-1.3,14.9-2.2l1-.4c-6.2-.5-12.6,0-18.9-.3-18.4-1.2-46.7-6.7-62.7-15.1ZM178,480.8c0,1.8-.4,4,.5,5.6,2.9,2.4,6.7,3.7,10.1,5,17.7,6.8,37.9,9.4,56.7,7.9,4.3-.3,8.7-.9,13-1.9l.8-.6c-5-.3-10.1,0-15.1-.3-19.1-1.4-49.5-6.3-66-15.8ZM178.2,492.8l.4,5.5c23.3,13.5,53.1,15.6,79.2,10.9l.8-.4c-4.7-1-13.2-.6-18.5-1-18.8-1.6-45.4-6-61.9-15ZM178.1,503.8c0,2-.3,4.6,1.3,6.1,2.4,2.3,6.2,3.6,9.3,4.8,16.5,6.4,34.2,9.2,51.8,8.2,5.8-.3,11.7-1,17.4-2.1l1.1-.3c-4-1.3-15.5-.6-20.4-1-19-1.5-43.8-6.8-60.6-15.7ZM178.3,515.9c0,1.8-.4,4.1.5,5.7,11.9,10.4,45.7,13.9,61.2,12.9,5.5-.4,11-1,16.4-2l1.4-.4c-27.5-1.7-54.1-4.4-79.4-16.3ZM177.7,526.8v5.7c18,13,50.7,15.8,72.1,12.5,2.2-.3,4.5-.7,6.6-1.3l1-.3c-21.6-.5-41.7-2.7-62.5-9.1-5.9-1.8-12.3-3.8-17.3-7.5ZM177.5,539.2c0,2.2-.3,3.8,1.3,5.5,9.7,9.8,40,13.5,53.4,13.3,7.8-.1,15.9-.5,23.6-1.9l.9-.3c-4-1.5-14.5-1-19.5-1.5-20.3-2-41.2-6.1-59.7-14.9ZM582.2,546.8h.4-.4ZM177.4,550.7c0,1.8-.4,3.9.5,5.5,3.1,2.7,7.1,4.2,10.9,5.7,15.6,6,32.3,8.6,48.9,7.6,5.5-.4,10.9-1.1,16.3-2.1l1-.2c-6.1-1.3-13.1-.8-19.4-1.4-18.2-1.7-42.1-6.1-58.2-15.1ZM177.2,562.4c0,2.6,0,4.1,2,5.9,11.1,10.3,42.5,13.9,57.2,13,4.7-.3,9.4-1,14-2l1-.6c-4.9-.9-12.1-.5-17.6-1.2-19.7-2.3-38.5-7-56.6-15.3ZM325.2,563.8c-2.4,6.1-4.9,10.3-9.5,14.9.6.8.7.9,1.6,1.4,1.5.6,3,1.5,4.7,1.2,2.9-2.5,3.7-8.9,3.9-12.6.1-1.7-.2-3.3-.7-4.9ZM165.9,570.8c-2.1,1.5-3.9,2.6-4.3,5.3-.7,4.4,1.7,8.8,4.4,12.2,7.1,9.1,25.7,18.5,36.9,20,2.2.3,3.2-.2,4.9-1.5.1-.1.3-.2.4-.3,1.8-1.6,3.6-3.2,5.4-4.7-13.6-3.3-35.5-8.8-43.1-21.9-1.4-2.3-2.6-7.8-4.6-9.1ZM177.2,573.3c1.3,4.7,4.3,7,8.5,9.4,12,6.7,26.3,9.9,39.9,10.5l3.9-2.8,1.2-.8c-3.6-2.1-12.7-2.5-17-3.4-12.6-2.6-25.3-6.4-36.5-12.9ZM282.3,605.2c-21.6,2.6-37.9,11.1-55,24.4,15,7.1,29.5,11.6,46.3,11.3,19.4-1.2,40.1-7.6,54.4-21.4-13.5-10.9-28.1-15.9-45.5-14.3,0,0-.1,0-.2,0ZM851.3,611.2l3,4.7c14.2,3.8,28.6,6.8,42.9,10.5,8,2,21.2,6.6,28.7,7-15.5-5.7-31.5-10.3-47.4-14.8-9-2.6-18.1-5.4-27.2-7.5ZM785.3,626.7c-25.9,2-47.7,13.2-64.6,33-9.1,10.7-17.7,25.2-20.1,39.2,18.4,12.4,39,20.8,61.4,21.6,14.8.1,31.1-1.1,44.5-8.3,3.3-24.2,13-46.2,32.8-61.4,2.4-1.8,4.9-3.4,7.5-5-15.9-14.2-39.3-20.3-60.3-19.2-.4,0-.8,0-1.2,0ZM334.7,628.4c-4.9,3.4-9.6,7-14.8,9.9-23.8,13.3-51.5,16.8-78.2,12-9.5-1.7-19.3-4.3-28.3-7.9-27.9,32.4-49.1,72.6-45.8,116.7,1.2,15.9,6.6,31.4,18.3,42.7,10.4,9.2,24,13.8,37.9,12.8,32.9-2.3,64.7-26.5,85.7-50.8,22.6-26.2,43.8-66.4,41-101.7-.9-11-6.5-25.3-14.3-33.3-.5-.1-.9-.3-1.4-.3ZM925.9,633.8h.9-.9ZM166.2,689.2h.4-.4ZM703.7,710.9c13.8,17,37.3,24.6,58.5,26.8,17.9,1.9,32.8-3.2,49.2-9.7.3-2-1-4.2-2-5.9-23.9,11.7-50.9,12.2-76,3.6-5.8-2-11.9-4.3-17.2-7.4-4-2.3-8.2-5.7-12.5-7.4Z"/>
      <path d="M954.2,253.7c-2.9-2-7.2-5.7-9.8-8.1-12.9-12-29.1-19.1-43.5-28.7-3.6-2.4-11.3-13.3-14.3-17.2-4.1-5.4-8.4-10.5-13-15.4-10.4-11.3-21.1-22.2-32.1-32.8-4.6-4.4-11.7-10.4-15.7-14.6,1.8-6.7,4.2-14.5,5.6-21.2l.9-5c9.6,6.7,17.6,13.8,26,22,10.3,10,20.8,19.8,30.5,30.3,18.1,20,34.3,42.1,49.7,64.2,3.3,4.7,14,21.5,15.7,26.5Z"/>
      <path d="M517.2,206c-14.9.3-32.8-.3-45.1-9.8-12.2-9.4-8.8-21.6-.1-31.8,11.8-13.8,29.4-19.8,47-21.1,19.4-1.1,48.9,5.5,51.7,29.5.6,5.4-1.7,12-5.4,16-12.4,13.3-30.8,15.8-47.9,17.2Z"/>
      <path d="M805,190.4c1.5-5.2,5.9-15,8.1-20.7,8.6,6.4,22.2,20.2,29.5,28.2-2.3-.7-4.8-1.3-7.1-1.8-11-2.5-19.4-4.1-30.5-5.7Z"/>
      <path d="M954.2,253.7l.2.2-.2-.2Z"/>
      <path d="M833,312.7c-.7,1.2-.6,1-1.6,2-1.9.6-7.6-1.1-8.7-2.9-.3-2.9,12.4-43.9,14.5-50.7,3.6.8,10.5,3.1,14,4.4-1.1,3.4-3.1,7.8-4.5,11.4-4.4,11.8-8.8,24.3-13.7,35.8Z"/>
      <path d="M250,292.1c-11.3,1-28.2-.5-38.1-6.9-3.7-2.4-5.6-7.4-2.1-10.9,7.7-7.7,19.7-8.8,30-9.5,42.3-2.6,61.1,23.5,10.2,27.4Z"/>
      <path d="M787.6,310.6c-4-.1-30-1.8-32.4-3.3.9-1.1,1.1-.8,2.9-1.2,6.3-.2,26.7.8,31.3,4l-.3.5h-1.6Z"/>
      <path d="M831.5,428c-12-27-24.3-51.6-41.8-75.6-4.5-6.2-10.9-13.4-14.6-19.9,4,0,21.5,2.9,25.8,3.8,29.2,6.6,63.6,13.8,81.7,40,12,17.4,3.6,24.5-11.4,34.4-11.3,6.8-26.9,13.4-39.6,17.4Z"/>
      <path d="M127.8,340.1c3.5-1.8,5.3-3.1,8.2-5.6,3.2,3.2,24.2,41.8,26.8,47.5-2.5,2.3-5,5.3-7.3,7.8-8.9-16.8-18.2-33.3-27.7-49.7Z"/>
      <path d="M598.9,465.4c-5,.2-9.3,0-13.8-2.6-4.1-2.5-7.1-6.5-8-11.2-.8-3.9,0-7.9,2.2-11.2,2.9-4.2,7.3-5.8,12.1-6.7,4.7-.1,9.4.5,13.6,2.7,3.8,2,6.9,5.3,8,9.6,1,3.9.4,7.9-1.6,11.4-2.8,4.8-7.4,6.9-12.6,8.1ZM591.7,440.1c-2.9,1-5.6,2.3-7,5.2-1,2-1,4.2-.2,6.3,1.2,3,3.8,5.3,6.8,6.4,2.8,1.1,5.6.9,8.5.4,2.8-1,5.6-2.4,7-5.2.9-1.8.8-3.8.1-5.6-1.2-3.2-4.2-5.6-7.3-6.8-2.6-1-5.2-1-7.9-.7Z"/>
      <path d="M863.5,573.1c7.6-3.7,15.6-6.7,23.3-10.4,21.9-10.8,43.9-24.8,61.3-42.1,7.3-7.3,13.8-15.2,20.3-23.2,1.8,3.6.6,11.7.5,15.7-1.6,38.5-7.1,76.6-16.5,114-2.9-4.2-5.3-8.7-8.3-12.8-9.8-13.1-23.3-20.8-38.1-27.2-13.8-5.9-28.2-9.5-42.5-13.9Z"/>
      <path d="M106.7,498.3l.3.2-.3-.2Z"/>
      <path d="M724.7,605.5c-3.3-8.2-24.2-38.3-23.7-43.7,0-.7,1.4-1.6,2-2.1,7.1,4.2,24.7,30.8,31.4,38.8,1.5-.8,3-1.5,4.8-1.7,1.5-.2,2.6-.4,3.8.6,0,.1,0,.3,0,.4-.7,3.3-11,8.2-13.9,10.4-7.7,5.6-14.7,12.7-21.4,19.5-2.7,3-5,6.8-8.2,9.3l-.3-.6c2.4-9.4,18.6-23.6,25.5-30.9Z"/>
      <path d="M811.6,607.8c-4.5-.2-17.1-1.6-20.4-3.9-.7-.5-.6-1.1-.7-2,3.8-.3,16.7,1.5,20.1,3.5.9.6.8,1.3,1.1,2.3Z"/>
      <path d="M853.6,702.5c-4-7.9-12.8-26.6-14.3-34.7.2-1.6,1.4-2.5,2.5-3.5,1.6.9,12.1,27.9,13.3,31.9.8,2.7-.3,4.1-1.6,6.4Z"/>
      <path d="M831.1,676.9c.9-1.4,1.9-2.8,2.9-4.2,1.8.9,13.4,30.5,15.6,35.3-.9,1.6-1.9,3.2-2.8,4.9-3.6-3.8-14.2-30-15.7-36Z"/>
      <path d="M288.9,775.9c-14.6,13-31.2,24.6-50.2,30.1-13.7,4-28.2,4.2-41-3-10.9-6.2-18.7-17.5-21.9-29.5-7.3-27,.6-62.3,14.4-86.3,7,3.1,17.4,12.8,25.3,17.2,25.9,14.5,58.4,20.6,87.9,17.2,10-1.2,19.5-3.6,29.2-6.3-10.9,24.2-24.5,42.5-43.8,60.6Z"/>
      <path d="M829.4,724.1c-.8,0-1.5,0-2.3-.1-.9-.3-1.6-1.6-2.1-2.4-3.8-7-5.9-16.5-3.7-24.3.7.4,1,.7,1.4,1.4,1.3,2.1,7.2,21.6,7.1,23.9,0,.5-.3,1.1-.4,1.6Z"/>
      <path d="M198.5,847.1c18.4,5.4,40.5,2.8,58.1-3.9,33.6-12.7,61.2-35.2,86.2-60.3,11.9-11.9,23.2-24.2,32.7-38.1,8-11.6,14.6-24.6,20.4-37.5,5.9,4.5,10.7,11,12.6,18.2,2.7,10.6-.6,25.8-5.6,35.3-2.7,5.1-6.8,9.8-10.2,14.5-5.3,7.4-10.2,15-14.7,22.8-23.8,40.5-40.9,91.3-28.7,138.2-32.1-11-62.7-25.9-91.2-44.3-20.9-13.8-40.1-29.1-59.5-44.9Z"/>
      <path d="M445,967.3c-2.3.3-4.6.5-7,.7-17.1,1.3-35.4-2.3-48.6-13.9-13.8-12.1-20.2-28.1-21.5-46.1-3.3-48,23.8-98.9,54.5-134.2,22.6-26,41.1-41.5,77-44.1,16.3-1.3,34.3,4.7,47.5,14.1,15.2,10.7,24.9,27.3,27.9,45.5,6.2,36.7-8.9,73.1-29.8,102.5-18,25.3-43.5,54.7-72.2,67.7-9,4.1-18.1,6.2-27.8,7.9ZM502.1,746.7c-29.6,2.9-52.1,27.4-70.1,49.1-15.7,19.1-26.8,37.8-32.2,62.3-1.8,8.4-3,17.2-2.2,25.8.7,7.5,3.3,15.4,9.3,20.3,5.5,4.5,12.6,5.3,19.4,4.4,14.6-2,27.2-10.2,39.9-16.9,6.5-3.4,13.2-6.6,19.9-9.6,16-6.8,33.7-10.2,50.8-12.6-16.2,31.4-46.7,63.5-80.7,74.5-14.5,4.7-32.6,6.3-46.6-1-11.4-6-19.1-17.1-22.7-29.2-.6-2-1.2-4-1.6-6-4.7-33.6,7.4-55.6,18.2-85.6-16.9,25.8-30.8,56.9-24.2,88.5,3.1,14.7,11.4,27.3,24,35.5,13.3,8.7,30.2,9.5,45.4,6.3,40.1-8.6,70.2-42.1,91.5-75.2,15.7-24.4,28.2-57.9,21.7-87.1-3-13.7-11.5-26.2-23.4-33.7-10.4-6.5-23.9-10.9-36.3-9.7Z"/>
      <path d="M774.2,821.4c26.6,4.4,53.5,1.3,79.3-5.8.2.2.2.5.3.7-2.7,4.3-7.2,8.3-10.7,12-16.4,17.6-35.5,34.4-54.9,48.7-5.4,4-11,7.5-16.5,11.3-7.2,5-14.4,10.2-21.8,14.8-11.2,7-22.9,12.7-34.7,18.4-56.4,27.4-117.9,42.8-180.5,45.2-7.5.3-24,1.8-30.7.2,5.7-4.7,12.1-8.3,17.8-13.2,17.3-14.7,32.2-32,44.3-51.2,7.1-11.3,13.3-23.1,20.4-34.4,11.9-3.8,34.9-3.1,48.6-4.4,51-4.7,94.9-16.9,139.3-42.6Z"/>
    </g>
  </g>
</svg>