<?xml version="1.0" encoding="UTF-8"?>
<svg id="_Слой_1" data-name="Слой_1" xmlns="http://www.w3.org/2000/svg" version="1.1" viewBox="0 0 30.93 37.99">
  <!-- Generator: Adobe Illustrator 29.6.1, SVG Export Plug-In . SVG Version: 2.1.1 Build 9)  -->
  <defs>
    <style>
      .st0 {
        fill: #2c3e50;
      }

      .st1 {
        fill: #e74c3c;
      }
    </style>
  </defs>
  <path class="st1" d="M4.21,7.66c-.06-2.48-.01-5.15,0-7.65,2.33.09,4.02-.31,6.19.97,3.75,2.2,4.74,7.21,2.64,10.88-.19.31-.5.72-.72,1.02.03-1.57-.78-3.04-1.93-4.06-1.76-1.56-4.01-1.31-6.18-1.16Z"/>
  <path class="st1" d="M18.6,12.86c-1.07-1.41-1.54-2.51-1.72-4.3C16.46,4.31,19.16.37,23.64.02c.23-.03.81-.02,1.06-.02h2.04c-.03,2.52.03,5.07-.02,7.56-1.66.03-3.54-.22-5.03.52-1.48.74-2.34,1.91-2.88,3.43-.16.49-.2.84-.21,1.35Z"/>
  <path class="st0" d="M12.82,20.49c-1.23.04-2.47-.04-3.72,0-4.45.12-8.46-3.26-8.96-7.7-.11-.97-.04-2.2-.04-3.21v-4.53c.12.08.91.92,1.07,1.08l3.06,3.07,5.76,5.8c1.37,1.37,2.82,2.79,4.16,4.2l-.63.65-.7.65Z"/>
  <path class="st0" d="M11.88,24.01c.5-.49,1-1.03,1.5-1.53,1.55-1.53,3.1-3.06,4.63-4.6l6.15-6.11c1.76-1.8,3.54-3.59,5.34-5.36.46-.45.9-.93,1.37-1.37.02.1,0,.51,0,.63v1.23s-.02,4.59-.02,4.59c0,2.52-.76,4.62-2.56,6.41-3.02,3.01-6.07,2.58-9.9,2.59-.44.44-.96.97-1.43,1.38l1.2,1.2c.28.28.65.64.89.95-.83.77-1.58,1.63-2.42,2.4-.4.36-.79.77-1.17,1.16-.24-.18-.55-.52-.76-.73l-2.85-2.84Z"/>
  <path class="st0" d="M7.6,37.96C3.56,38.1.16,34.94,0,30.9c-.16-4.04,2.99-7.45,7.03-7.63,4.06-.17,7.5,2.99,7.65,7.06.16,4.07-3.02,7.48-7.08,7.63ZM9.58,25.92c-2.25.21-4.09,1.2-5.52,2.94-1.47,1.79-1.88,3.75-1.43,5.99.93.35,1.57.44,2.55.44,1.88-.03,3.66-.81,4.96-2.16,1.41-1.45,2.23-3.29,2.19-5.32,0-.3-.05-1.25-.29-1.43-.53-.4-1.83-.53-2.46-.45Z"/>
  <path class="st0" d="M24.33,37.95c-4.06.43-7.69-2.52-8.1-6.58-.42-4.06,2.54-7.68,6.6-8.09,4.05-.41,7.66,2.54,8.07,6.58.42,4.04-2.52,7.66-6.57,8.08ZM20.38,25.92c-.55.06-1.13.14-1.6.47-.18.41-.19.88-.21,1.32-.13,2.9,1.92,5.9,4.55,7.04,1.12.49,2.36.67,3.57.53.38-.06,1.36-.24,1.57-.6.26-.45.27-1.41.22-1.92-.33-3.92-4.15-7.25-8.11-6.84Z"/>
</svg>